<svg width="25" height="17" viewBox="0 0 25 17" fill="none" xmlns="http://www.w3.org/2000/svg">
<g clip-path="url(#clip0_4913_570)">
<path d="M5.31554 11.5249L1.27169 15.4135C1.11056 15.1155 1.00928 14.7214 1.00928 14.2985V1.55758L8.3383 8.61772M16.2299 9.02623L23.9999 1.53355V14.2985C23.9999 14.7118 23.9079 15.0915 23.7467 15.3895L18.0994 9.99081M1.30207 1.36005L1.27353 1.34131M8.3383 8.61772L10.3961 10.6026C10.5066 10.7084 10.6171 10.7997 10.7276 10.8766C11.8463 11.7417 13.1491 11.7417 14.2632 10.8718C14.3691 10.7949 14.4796 10.6987 14.5809 10.6026L16.6525 8.6081" stroke="#8D8D8D" stroke-width="1.5" stroke-miterlimit="10" stroke-linecap="round" stroke-linejoin="round"/>
<path d="M18.0638 9.9563L23.747 15.3891C23.5537 15.7592 23.2544 15.9995 22.923 15.9995H2.08682C1.76456 15.9995 1.46993 15.7736 1.27197 15.4131L6.83227 10.0659" stroke="#8D8D8D" stroke-width="1.5" stroke-miterlimit="10" stroke-linecap="round" stroke-linejoin="round"/>
<path d="M18.8563 1H23.2114C23.483 1 23.7454 1.16821 23.9342 1.43735C23.9572 1.46619 23.9802 1.49983 23.9986 1.53348L16.6512 8.60803L14.5795 10.6026C14.4783 10.6987 14.3678 10.7948 14.2619 10.8717C13.1478 11.7416 11.845 11.7416 10.7263 10.8765C10.6158 10.7996 10.5053 10.7083 10.3948 10.6026L8.33698 8.61764L1.00796 1.55751C1.02637 1.52867 1.04939 1.49503 1.07241 1.46138C1.26576 1.17302 1.52817 1 1.8136 1H5.7175M2.14644 15.9998C2.14644 15.9998 0.879514 16.0671 1.00934 13.8443" stroke="#8D8D8D" stroke-width="1.5" stroke-miterlimit="10" stroke-linecap="round" stroke-linejoin="round"/>
<path d="M5.37341 1H20.1051" stroke="#8D8D8D" stroke-width="1.35849"/>
</g>
<defs>
<clipPath id="clip0_4913_570">
<rect width="25" height="17" fill="white"/>
</clipPath>
</defs>
</svg>
