<svg width="18" height="18" viewBox="0 0 18 18" fill="none" xmlns="http://www.w3.org/2000/svg">
<path fill-rule="evenodd" clip-rule="evenodd" d="M10.621 5.31793C10.621 4.3216 9.72971 3.53866 8.69158 3.72571L8.68824 3.72631L8.68824 3.72631C8.38136 3.78035 8.05168 3.98745 7.78716 4.33049C7.52287 4.67323 7.37871 5.08256 7.37871 5.4383V6.18886C7.37871 6.54245 7.52312 6.94964 7.78873 7.29261C8.05433 7.63557 8.38585 7.84491 8.69302 7.90171C9.73054 8.08778 10.621 7.3051 10.621 6.30923V5.31793ZM8.38921 2.0383C10.4942 1.66001 12.3352 3.27007 12.3352 5.31793V6.30923C12.3352 8.35762 10.4933 9.96798 8.38759 9.58857L8.38485 9.58807C7.57363 9.43918 6.8967 8.94055 6.43336 8.34226C5.96965 7.74349 5.66443 6.97528 5.66443 6.18886V5.4383C5.66443 4.65405 5.96636 3.88443 6.42961 3.28367C6.89232 2.68362 7.57102 2.18292 8.38921 2.0383Z" fill="#8D8D8D"/>
<path fill-rule="evenodd" clip-rule="evenodd" d="M9 1.71429C4.97621 1.71429 1.71429 4.97621 1.71429 9C1.71429 13.0238 4.97621 16.2857 9 16.2857C13.0238 16.2857 16.2857 13.0238 16.2857 9C16.2857 4.97621 13.0238 1.71429 9 1.71429ZM0 9C0 4.02944 4.02944 0 9 0C13.9706 0 18 4.02944 18 9C18 13.9706 13.9706 18 9 18C4.02944 18 0 13.9706 0 9Z" fill="#8D8D8D"/>
<path fill-rule="evenodd" clip-rule="evenodd" d="M8.99985 12.3351C6.82801 12.3351 4.99613 13.583 4.23181 15.3028C4.03955 15.7353 3.53301 15.9302 3.10042 15.7379C2.66784 15.5456 2.47302 15.0391 2.66528 14.6065C3.71362 12.2477 6.17268 10.6208 8.99985 10.6208C11.827 10.6208 14.2861 12.2477 15.3344 14.6065C15.5267 15.0391 15.3319 15.5456 14.8993 15.7379C14.4667 15.9302 13.9601 15.7353 13.7679 15.3028C13.0036 13.583 11.1717 12.3351 8.99985 12.3351Z" fill="#8D8D8D"/>
</svg>
