<svg width="18" height="18" viewBox="0 0 18 18" fill="none" xmlns="http://www.w3.org/2000/svg">
<path d="M12.4873 0.000335199C11.7625 0.00841138 11.0192 0.161729 10.2919 0.476213L10.2589 0.49139L10.2259 0.509817C9.76488 0.76416 9.34468 1.08233 8.97114 1.45939C6.96079 -0.424241 3.76023 -0.560951 1.57059 1.57755L1.54857 1.59922L1.52856 1.62199C-0.392286 3.79551 -0.347301 7.14283 0.8041 9.78769L0.814105 9.8083L0.82411 9.82998C2.18017 12.5503 4.71235 14.8618 7.01992 16.7621L7.02592 16.7675L7.03092 16.7719C7.17937 16.8898 7.43464 17.1335 7.72935 17.3735C8.02404 17.6134 8.35693 17.8764 8.84403 17.9773L8.95309 18L9.06316 17.9902C9.57439 17.9425 9.77494 17.738 10.1108 17.509C10.4467 17.2799 10.8185 16.9892 11.2005 16.671C11.9535 16.0439 12.7327 15.321 13.2457 14.8055C13.2523 14.7988 13.2632 14.7893 13.2698 14.7827C13.2708 14.7817 13.2717 14.7804 13.2728 14.7795C14.3535 13.7804 15.4241 12.6286 16.3317 11.2739C16.3319 11.2735 16.3324 11.2732 16.3326 11.2728C16.3343 11.2703 16.3359 11.2677 16.3376 11.2652C17.777 9.16583 18.4752 6.33669 17.6424 3.54935L17.6274 3.49948L17.6074 3.45286C16.6725 1.26313 14.6615 -0.0238609 12.4873 0.000335199ZM12.5133 1.71522C14.0798 1.67618 15.4529 2.58488 16.1345 4.13901C16.7644 6.31482 16.2199 8.53168 15.0469 10.2386L15.0439 10.243L15.0409 10.2473C14.2237 11.469 13.234 12.5384 12.2081 13.4841L12.1951 13.4971L12.1821 13.5101C11.7202 13.976 10.9382 14.7016 10.2239 15.2966C9.86673 15.594 9.52431 15.8599 9.25831 16.0413C9.15829 16.1095 9.06319 16.156 8.98513 16.1919C8.9031 16.1434 8.79898 16.075 8.69097 15.9871C8.47347 15.81 8.24187 15.5839 7.98952 15.3822C7.98559 15.3789 7.98145 15.3757 7.97752 15.3724C5.73811 13.5272 3.37927 11.2866 2.24499 9.02782C1.32412 6.8966 1.36431 4.34571 2.66524 2.84689C4.43413 1.14306 7.06209 1.51347 8.37274 3.26206L9.01114 4.113L9.62853 3.24472C9.98376 2.74547 10.4077 2.36381 10.9223 2.07401C11.4618 1.84572 11.9977 1.72805 12.5133 1.71522Z" fill="#8D8D8D"/>
</svg>
